<mxfile host="Electron" modified="2024-05-20T08:56:17.653Z" agent="Mozilla/5.0 (Windows NT 10.0; Win64; x64) AppleWebKit/537.36 (KHTML, like Gecko) draw.io/24.4.0 Chrome/120.0.6099.109 Electron/28.1.0 Safari/537.36" etag="y4U3VsjMhCG_JxC_QErn" version="24.4.0" type="device">
  <diagram name="Seite-1" id="Istlq3-P4NaRur7MBP4g">
    <mxGraphModel dx="2375" dy="902" grid="1" gridSize="10" guides="1" tooltips="1" connect="1" arrows="1" fold="1" page="1" pageScale="1" pageWidth="827" pageHeight="1169" math="0" shadow="0">
      <root>
        <mxCell id="0" />
        <mxCell id="1" parent="0" />
        <mxCell id="gtaeN6OUMr1vXqJ7nPdY-1" value="Flint&#xa;192.168.8.1" style="shape=image;verticalLabelPosition=bottom;labelBackgroundColor=default;verticalAlign=top;aspect=fixed;imageAspect=0;image=https://static.gl-inet.com/www/images/products/gl-ax1800/ax1800_1.jpg;fontStyle=1" vertex="1" parent="1">
          <mxGeometry x="340" y="239.75" width="110" height="110" as="geometry" />
        </mxCell>
        <mxCell id="gtaeN6OUMr1vXqJ7nPdY-6" style="rounded=0;orthogonalLoop=1;jettySize=auto;html=1;entryX=1;entryY=0.5;entryDx=0;entryDy=0;dashed=1;shape=link;edgeStyle=entityRelationEdgeStyle;fontStyle=1" edge="1" parent="1" source="gtaeN6OUMr1vXqJ7nPdY-2" target="gtaeN6OUMr1vXqJ7nPdY-1">
          <mxGeometry relative="1" as="geometry" />
        </mxCell>
        <mxCell id="gtaeN6OUMr1vXqJ7nPdY-2" value="Client A&lt;div&gt;192.168.8.176&lt;/div&gt;" style="image;points=[];aspect=fixed;html=1;align=center;shadow=0;dashed=0;image=img/lib/allied_telesis/computer_and_terminals/Personal_Computer.svg;fontStyle=1" vertex="1" parent="1">
          <mxGeometry x="550" y="177.95" width="45.6" height="61.800000000000004" as="geometry" />
        </mxCell>
        <mxCell id="gtaeN6OUMr1vXqJ7nPdY-7" style="rounded=0;orthogonalLoop=1;jettySize=auto;html=1;entryX=1;entryY=0.5;entryDx=0;entryDy=0;dashed=1;shape=link;edgeStyle=entityRelationEdgeStyle;fontStyle=1" edge="1" parent="1" source="gtaeN6OUMr1vXqJ7nPdY-4" target="gtaeN6OUMr1vXqJ7nPdY-1">
          <mxGeometry relative="1" as="geometry" />
        </mxCell>
        <mxCell id="gtaeN6OUMr1vXqJ7nPdY-4" value="Client B&lt;br&gt;192.168.8.219" style="image;html=1;image=img/lib/clip_art/telecommunication/iPhone_128x128.png;fontStyle=1" vertex="1" parent="1">
          <mxGeometry x="550" y="330" width="80" height="80" as="geometry" />
        </mxCell>
        <mxCell id="gtaeN6OUMr1vXqJ7nPdY-9" value="" style="html=1;verticalLabelPosition=bottom;align=center;labelBackgroundColor=#ffffff;verticalAlign=top;strokeWidth=2;strokeColor=#6c8ebf;shadow=0;dashed=0;shape=mxgraph.ios7.icons.wifi;pointerEvents=1;fillColor=#dae8fc;fontStyle=1" vertex="1" parent="1">
          <mxGeometry x="400" y="220" width="66" height="52" as="geometry" />
        </mxCell>
        <mxCell id="gtaeN6OUMr1vXqJ7nPdY-13" style="rounded=0;orthogonalLoop=1;jettySize=auto;html=1;startArrow=classic;startFill=1;fontStyle=1" edge="1" parent="1" source="gtaeN6OUMr1vXqJ7nPdY-11" target="gtaeN6OUMr1vXqJ7nPdY-12">
          <mxGeometry relative="1" as="geometry" />
        </mxCell>
        <mxCell id="gtaeN6OUMr1vXqJ7nPdY-14" style="rounded=0;orthogonalLoop=1;jettySize=auto;html=1;entryX=0;entryY=0.5;entryDx=0;entryDy=0;startArrow=classic;startFill=1;fontStyle=1" edge="1" parent="1" source="gtaeN6OUMr1vXqJ7nPdY-11" target="gtaeN6OUMr1vXqJ7nPdY-1">
          <mxGeometry relative="1" as="geometry" />
        </mxCell>
        <mxCell id="gtaeN6OUMr1vXqJ7nPdY-11" value="Internet" style="outlineConnect=0;dashed=0;verticalLabelPosition=bottom;verticalAlign=top;align=center;html=1;shape=mxgraph.aws3.internet_2;fillColor=#D2D3D3;gradientColor=none;fontStyle=1" vertex="1" parent="1">
          <mxGeometry x="130" y="190" width="110" height="70.5" as="geometry" />
        </mxCell>
        <mxCell id="gtaeN6OUMr1vXqJ7nPdY-20" value="WireGuard Tunnel" style="edgeStyle=orthogonalEdgeStyle;rounded=0;orthogonalLoop=1;jettySize=auto;html=1;shape=arrow;fillColor=#fff2cc;strokeColor=#d6b656;fontStyle=1" edge="1" parent="1" source="gtaeN6OUMr1vXqJ7nPdY-12" target="gtaeN6OUMr1vXqJ7nPdY-1">
          <mxGeometry y="-20" relative="1" as="geometry">
            <Array as="points">
              <mxPoint x="180" y="330" />
              <mxPoint x="180" y="330" />
            </Array>
            <mxPoint as="offset" />
          </mxGeometry>
        </mxCell>
        <mxCell id="gtaeN6OUMr1vXqJ7nPdY-12" value="Beryl AX&#xa;Travel router&#xa;192.168.8.1" style="shape=image;verticalLabelPosition=bottom;labelBackgroundColor=default;verticalAlign=top;aspect=fixed;imageAspect=0;image=https://static.gl-inet.com/www/images/products/gl-mt3000/mt3000_main.png;fontStyle=1" vertex="1" parent="1">
          <mxGeometry x="-100" y="244.11" width="120" height="101.28" as="geometry" />
        </mxCell>
        <mxCell id="gtaeN6OUMr1vXqJ7nPdY-18" style="rounded=0;orthogonalLoop=1;jettySize=auto;html=1;entryX=0;entryY=0.5;entryDx=0;entryDy=0;dashed=1;shape=link;edgeStyle=entityRelationEdgeStyle;fontStyle=1" edge="1" parent="1" source="gtaeN6OUMr1vXqJ7nPdY-15" target="gtaeN6OUMr1vXqJ7nPdY-12">
          <mxGeometry relative="1" as="geometry" />
        </mxCell>
        <mxCell id="gtaeN6OUMr1vXqJ7nPdY-15" value="Client A&lt;br&gt;192.168.8.155" style="image;points=[];aspect=fixed;html=1;align=center;shadow=0;dashed=0;image=img/lib/allied_telesis/computer_and_terminals/Personal_Computer.svg;fontStyle=1" vertex="1" parent="1">
          <mxGeometry x="-260" y="177" width="45.6" height="61.800000000000004" as="geometry" />
        </mxCell>
        <mxCell id="gtaeN6OUMr1vXqJ7nPdY-17" style="rounded=0;orthogonalLoop=1;jettySize=auto;html=1;entryX=0;entryY=0.5;entryDx=0;entryDy=0;dashed=1;shape=link;edgeStyle=entityRelationEdgeStyle;fontStyle=1" edge="1" parent="1" source="gtaeN6OUMr1vXqJ7nPdY-16" target="gtaeN6OUMr1vXqJ7nPdY-12">
          <mxGeometry relative="1" as="geometry" />
        </mxCell>
        <mxCell id="gtaeN6OUMr1vXqJ7nPdY-16" value="Client B&lt;div&gt;192.168.8.152&lt;/div&gt;" style="image;html=1;image=img/lib/clip_art/telecommunication/iPhone_128x128.png;fontStyle=1" vertex="1" parent="1">
          <mxGeometry x="-277.2" y="340" width="80" height="80" as="geometry" />
        </mxCell>
        <mxCell id="gtaeN6OUMr1vXqJ7nPdY-19" value="" style="html=1;verticalLabelPosition=bottom;align=center;labelBackgroundColor=#ffffff;verticalAlign=top;strokeWidth=2;strokeColor=#6c8ebf;shadow=0;dashed=0;shape=mxgraph.ios7.icons.wifi;pointerEvents=1;fillColor=#dae8fc;fontStyle=1" vertex="1" parent="1">
          <mxGeometry x="-140" y="220" width="66" height="52" as="geometry" />
        </mxCell>
        <mxCell id="gtaeN6OUMr1vXqJ7nPdY-21" value="This setup won&#39;t work because the networks on both sides are the same (192.168.&lt;span style=&quot;font-size: 14px;&quot;&gt;8&lt;/span&gt;.x)" style="rounded=0;whiteSpace=wrap;html=1;fillColor=#f8cecc;strokeColor=#b85450;fontStyle=1;fontSize=14;" vertex="1" parent="1">
          <mxGeometry x="-120" y="410" width="620" height="60" as="geometry" />
        </mxCell>
        <mxCell id="gtaeN6OUMr1vXqJ7nPdY-22" value="" style="verticalLabelPosition=bottom;verticalAlign=top;html=1;shape=mxgraph.basic.x;fillColor=#f8cecc;strokeColor=#b85450;opacity=30;strokeWidth=7;" vertex="1" parent="1">
          <mxGeometry x="45" y="160" width="280" height="240" as="geometry" />
        </mxCell>
      </root>
    </mxGraphModel>
  </diagram>
</mxfile>
